<svg width="11" height="11" viewBox="0 0 11 11" fill="none" xmlns="http://www.w3.org/2000/svg">
<path fill-rule="evenodd" clip-rule="evenodd" d="M4.12817 1.37658C3.39826 1.37658 2.69825 1.66654 2.18213 2.18266C1.66601 2.69878 1.37606 3.39879 1.37606 4.1287C1.37606 4.8586 1.66601 5.55861 2.18213 6.07474C2.69825 6.59086 3.39826 6.88081 4.12817 6.88081C4.85808 6.88081 5.55809 6.59086 6.07421 6.07474C6.59033 5.55861 6.88028 4.8586 6.88028 4.1287C6.88028 3.39879 6.59033 2.69878 6.07421 2.18266C5.55809 1.66654 4.85808 1.37658 4.12817 1.37658ZM7.80647e-08 4.1287C-8.28315e-05 3.47899 0.153184 2.83845 0.447336 2.25915C0.741488 1.67985 1.16822 1.17815 1.69282 0.794873C2.21743 0.411592 2.82509 0.157544 3.46639 0.0533905C4.10769 -0.0507626 4.76452 -0.00207956 5.38345 0.19548C6.00239 0.39304 6.56596 0.733898 7.02832 1.19033C7.49069 1.64677 7.83879 2.20589 8.04433 2.82222C8.24986 3.43856 8.30702 4.0947 8.21115 4.73729C8.11529 5.37988 7.86911 5.99078 7.49263 6.52028L10.8069 9.83452C10.9322 9.96428 11.0015 10.1381 11 10.3185C10.9984 10.4989 10.926 10.6714 10.7985 10.799C10.6709 10.9266 10.4983 10.9989 10.3179 11.0005C10.1376 11.0021 9.96375 10.9327 9.83399 10.8074L6.52045 7.49384C5.90284 7.933 5.17628 8.19368 4.42036 8.24732C3.66444 8.30095 2.90835 8.14548 2.23492 7.79793C1.5615 7.45038 0.996738 6.92417 0.602523 6.27696C0.208308 5.62975 -0.000147273 4.88651 7.80647e-08 4.1287Z" fill="#303030"/>
</svg>
